<?xml version="1.0" encoding="UTF-8" standalone="no"?>
<!-- Created with Inkscape (http://www.inkscape.org/) -->

<svg
   xmlns:dc="http://purl.org/dc/elements/1.1/"
   xmlns:cc="http://creativecommons.org/ns#"
   xmlns:rdf="http://www.w3.org/1999/02/22-rdf-syntax-ns#"
   xmlns:svg="http://www.w3.org/2000/svg"
   xmlns="http://www.w3.org/2000/svg"
   xmlns:xlink="http://www.w3.org/1999/xlink"
   xmlns:sodipodi="http://sodipodi.sourceforge.net/DTD/sodipodi-0.dtd"
   xmlns:inkscape="http://www.inkscape.org/namespaces/inkscape"
   width="210mm"
   height="297mm"
   viewBox="0 0 744.09448819 1052.3622047"
   id="svg2"
   version="1.1"
   inkscape:version="0.91 r13725"
   sodipodi:docname="ARcube.svg">
  <defs
     id="defs4">
    <linearGradient
       inkscape:collect="always"
       id="linearGradient4396">
      <stop
         style="stop-color:#262626;stop-opacity:1;"
         offset="0"
         id="stop4398" />
      <stop
         style="stop-color:#8b8b8b;stop-opacity:1"
         offset="1"
         id="stop4400" />
    </linearGradient>
    <linearGradient
       inkscape:collect="always"
       id="linearGradient4388">
      <stop
         style="stop-color:#898989;stop-opacity:1;"
         offset="0"
         id="stop4390" />
      <stop
         style="stop-color:#d1d1d1;stop-opacity:1"
         offset="1"
         id="stop4392" />
    </linearGradient>
    <linearGradient
       inkscape:collect="always"
       id="linearGradient4380">
      <stop
         style="stop-color:#cdcdcd;stop-opacity:1;"
         offset="0"
         id="stop4382" />
      <stop
         style="stop-color:#ffffff;stop-opacity:1"
         offset="1"
         id="stop4384" />
    </linearGradient>
    <linearGradient
       inkscape:collect="always"
       xlink:href="#linearGradient4396"
       id="linearGradient4410"
       x1="273.66992"
       y1="635.87598"
       x2="273.66992"
       y2="435.87598"
       gradientUnits="userSpaceOnUse" />
    <linearGradient
       inkscape:collect="always"
       xlink:href="#linearGradient4396"
       id="linearGradient4418"
       x1="442.5"
       y1="586.86218"
       x2="503.11523"
       y2="581.74219"
       gradientUnits="userSpaceOnUse" />
    <linearGradient
       inkscape:collect="always"
       xlink:href="#linearGradient4396"
       id="linearGradient4426"
       x1="539"
       y1="538.36218"
       x2="563.51758"
       y2="488.23047"
       gradientUnits="userSpaceOnUse" />
    <linearGradient
       inkscape:collect="always"
       xlink:href="#linearGradient4388"
       id="linearGradient4434"
       x1="476.17969"
       y1="636.67676"
       x2="476.17969"
       y2="433.67676"
       gradientUnits="userSpaceOnUse" />
    <linearGradient
       inkscape:collect="always"
       xlink:href="#linearGradient4388"
       id="linearGradient4442"
       x1="315.36963"
       y1="592.03571"
       x2="248.90234"
       y2="475.14453"
       gradientUnits="userSpaceOnUse" />
    <linearGradient
       inkscape:collect="always"
       xlink:href="#linearGradient4380"
       id="linearGradient4450"
       x1="289.67084"
       y1="319.66061"
       x2="462.10443"
       y2="429.66061"
       gradientUnits="userSpaceOnUse" />
    <linearGradient
       inkscape:collect="always"
       xlink:href="#linearGradient4380"
       id="linearGradient4458"
       x1="462.33398"
       y1="479.32062"
       x2="481.79102"
       y2="495.32062"
       gradientUnits="userSpaceOnUse" />
  </defs>
  <sodipodi:namedview
     id="base"
     pagecolor="#ffffff"
     bordercolor="#666666"
     borderopacity="1.0"
     inkscape:pageopacity="0.0"
     inkscape:pageshadow="2"
     inkscape:zoom="1"
     inkscape:cx="393.88661"
     inkscape:cy="594.98762"
     inkscape:document-units="px"
     inkscape:current-layer="layer1"
     showgrid="false"
     inkscape:object-nodes="false"
     inkscape:window-width="1033"
     inkscape:window-height="1036"
     inkscape:window-x="21"
     inkscape:window-y="0"
     inkscape:window-maximized="0" />
  <metadata
     id="metadata7">
    <rdf:RDF>
      <cc:Work
         rdf:about="">
        <dc:format>image/svg+xml</dc:format>
        <dc:type
           rdf:resource="http://purl.org/dc/dcmitype/StillImage" />
        <dc:title></dc:title>
      </cc:Work>
    </rdf:RDF>
  </metadata>
  <g
     inkscape:label="Layer 1"
     inkscape:groupmode="layer"
     id="layer1">
    <g
       id="g4498">
      <path
         id="path4152"
         d="M 562.10352 372.86133 L 562.10352 377.64648 L 563.51758 378.46289 L 563.51758 373.67773 L 562.10352 372.86133 z M 191.66992 378.46289 L 191.66992 588.36328 L 248.90234 621.40625 L 248.90234 475.14453 L 315.36914 513.51758 L 315.36914 659.78125 L 376.17969 694.89062 L 376.17969 484.98828 L 191.66992 378.46289 z "
         style="opacity:1;fill:url(#linearGradient4410);fill-opacity:1;stroke:none" />
      <path
         inkscape:connector-curvature="0"
         id="path4186"
         d="m 377.59466,266.33347 -185.92383,107.34375 0,4.78515 184.50976,106.52539 185.92383,-107.34179 0,-4.78516 -184.50976,-106.52734 z"
         style="opacity:1;fill:url(#linearGradient4450);fill-opacity:1;stroke:none" />
      <path
         id="path4188"
         d="M 562.10352 377.64648 L 376.17969 484.98828 L 376.17969 694.89062 L 377.59375 695.70703 L 442.64844 658.14844 L 442.64844 574.08398 L 509.11523 535.71094 L 509.11523 619.77344 L 563.51758 588.36328 L 563.51758 524.42383 L 538.81445 538.72852 L 538.50195 502.71484 L 563.51758 488.23047 L 563.51758 378.46289 L 562.10352 377.64648 z M 526.47852 439.84961 L 526.79102 475.86523 L 442.64844 524.58594 L 442.33398 488.57227 L 526.47852 439.84961 z "
         style="opacity:1;fill:url(#linearGradient4434);fill-opacity:1;stroke:none" />
      <path
         inkscape:connector-curvature="0"
         id="path4326"
         d="M 315.36962,616.78443 Z"
         style="fill:none;fill-rule:evenodd;stroke:#000000;stroke-width:1px;stroke-linecap:butt;stroke-linejoin:miter;stroke-opacity:1;opacity:1" />
      <path
         inkscape:connector-curvature="0"
         id="path4346"
         d="m 248.90234,475.14453 0,146.26172 66.46728,-29.37056 -4.8e-4,-78.51811 z"
         style="fill:url(#linearGradient4442);fill-rule:evenodd;stroke:none;stroke-width:1px;stroke-linecap:butt;stroke-linejoin:miter;stroke-opacity:1;opacity:1;fill-opacity:1" />
      <path
         inkscape:connector-curvature="0"
         id="path4350"
         d="M 509.11523,619.77344 442.5,586.8622 l 0.14844,-12.77822 66.46679,-38.37304 z"
         style="fill:url(#linearGradient4418);fill-rule:evenodd;stroke:none;stroke-width:1px;stroke-linecap:butt;stroke-linejoin:miter;stroke-opacity:1;opacity:1;fill-opacity:1" />
      <path
         inkscape:connector-curvature="0"
         id="path4360"
         d="M 558,739.3622 Z"
         style="fill:none;fill-rule:evenodd;stroke:#000000;stroke-width:1px;stroke-linecap:butt;stroke-linejoin:miter;stroke-opacity:1" />
      <path
         inkscape:connector-curvature="0"
         id="path4362"
         d="m 563,525.3622 -24.5,-8.5 0.5,21.5 z"
         style="fill:url(#linearGradient4426);fill-rule:evenodd;stroke:none;stroke-width:1px;stroke-linecap:butt;stroke-linejoin:miter;stroke-opacity:1;opacity:1;fill-opacity:1" />
      <path
         inkscape:connector-curvature="0"
         id="path4376"
         d="m 526.79102,475.86523 -35.21922,-15.80992 -49.23782,28.51696 0.31446,36.01367 z"
         style="fill:url(#linearGradient4458);fill-rule:evenodd;stroke:none;stroke-width:1px;stroke-linecap:butt;stroke-linejoin:miter;stroke-opacity:1;opacity:0.469;fill-opacity:1" />
      <path
         inkscape:connector-curvature="0"
         id="path4378"
         d="m 526.79102,475.86523 -0.3125,-36.01562 -34.90672,20.2057 z"
         style="fill:#000000;fill-rule:evenodd;stroke:none;stroke-width:1px;stroke-linecap:butt;stroke-linejoin:miter;stroke-opacity:1;opacity:0.46905537" />
      <path
         inkscape:connector-curvature="0"
         d="m 562.12953,373.0626 c 1.2071,0.77485 2.51645,1.37955 3.83142,1.94557 0.23586,0.0956 0.94526,0.41066 1.26553,0.45819 0.0632,0.009 0.24112,-0.0812 0.18484,-0.051 -0.78556,0.42262 -1.51553,0.9972 -2.37663,1.23009 -0.22989,0.0622 -0.37515,-0.29363 -0.56771,-0.43376 -0.29148,-0.21212 -0.58944,-0.41521 -0.88416,-0.62282 -0.9138,-0.60782 -1.78638,-1.27875 -2.71394,-1.86625 -0.13179,-0.0835 -0.54167,-0.15204 -0.40707,-0.23087 2.42973,-1.4231 1.94285,-1.50289 3.2011,-0.52319 0.65649,0.48159 1.30769,0.9798 2.00852,1.3972 0.10656,0.0635 0.21017,0.14157 0.33081,0.17032 0.0303,0.007 0.0758,-0.0947 0.0484,-0.08 -0.79558,0.42901 -1.5759,0.8857 -2.36385,1.32855 -0.44463,-0.28104 -0.91504,-0.53188 -1.41491,-0.70088 -0.13032,-0.0441 -0.26234,-0.10689 -0.39983,-0.10226 -0.0633,0.002 -0.20286,0.15011 -0.14677,0.12069 0.76351,-0.40047 1.51487,-0.8237 2.27231,-1.23555 0.59102,0.61028 1.25224,1.16878 1.96118,1.63918 0.38704,0.2568 0.26189,0.29586 0.4784,0.15129 -0.79064,0.40548 -1.51427,0.98414 -2.37192,1.21644 -0.21228,0.0575 -0.31807,-0.30478 -0.49068,-0.44107 -0.93289,-0.73653 -1.96885,-1.34654 -2.96904,-1.98486 -0.11765,-0.0811 -0.2594,-0.13517 -0.35293,-0.24316 -0.0546,-0.063 -0.14083,-0.20337 -0.0665,-0.24106 0.85877,-0.43537 1.74036,-0.8633 2.67783,-1.08282 0.23626,-0.0553 0.44086,0.20294 0.66303,0.30051 0.52333,0.22985 1.05017,0.45165 1.57372,0.68102 0.21898,0.0911 0.43417,0.19183 0.65694,0.27318 0.97195,0.35492 2.02628,-0.0733 -1.84823,1.37399 -0.14714,0.055 -0.24162,-0.20095 -0.36719,-0.29532 -0.71854,-0.54001 -0.77283,-0.55568 -1.55635,-1.0663 -0.39965,-0.24379 -0.98666,-0.62271 -1.43305,-0.82752 -0.8364,-0.38376 -2.79124,0.22713 1.95699,-1.3377 0.16296,-0.0537 0.22301,0.262 0.34957,0.37786 0.22649,0.20733 0.4717,0.39322 0.70755,0.58983 0.78936,0.5423 1.52869,1.18461 2.41016,1.58086 0.11768,0.0529 0.47762,0.03 0.37257,0.10492 -2.18458,1.55759 -1.68745,1.7881 -2.66187,0.87806 -0.75754,-0.57651 -1.57599,-1.08311 -2.42973,-1.50545 -0.20328,-0.10056 -0.40702,-0.20728 -0.62582,-0.26694 -0.0986,-0.0269 -0.39343,0.066 -0.3062,0.0128 0.72025,-0.43886 1.4895,-0.79173 2.23424,-1.1876 0.31899,0.37979 0.13203,0.17652 0.57507,0.59644 0,0 -2.12508,1.31758 -2.12508,1.31758 l 0,0 c -0.52373,-0.44932 -0.27723,-0.22092 -0.74208,-0.68239 0.72033,-0.50592 1.40045,-1.07457 2.16099,-1.51776 0.08,-0.0466 0.17331,0.0665 0.25517,0.10977 0.19122,0.1011 0.37545,0.21492 0.56296,0.32276 0.84852,0.48802 1.69912,0.97277 2.53599,1.48066 1.17989,0.78632 1.04182,0.44864 -1.55437,1.84909 -0.10238,0.0552 -0.1931,-0.12975 -0.28942,-0.19496 -1.36243,-0.92239 0.19427,0.13241 -1.47987,-1.01851 -0.2983,-0.20507 -0.59869,-0.40709 -0.89803,-0.61064 -0.27125,-0.18273 -0.54668,-0.35939 -0.81374,-0.54818 -0.17014,-0.12027 -0.63494,-0.2222 -0.49733,-0.37864 0.57049,-0.6486 1.37321,-1.05926 2.12937,-1.47683 0.0839,-0.0464 0.14989,0.11987 0.22856,0.1747 0.44521,0.31024 0.89916,0.59124 1.35741,0.88333 2.77989,1.70789 -0.9249,-0.56036 1.67118,1.00521 0.19158,0.11553 0.71902,0.18957 0.56915,0.35567 -1.77721,1.96962 -1.73157,1.61279 -3.10747,0.95921 -0.71108,-0.31524 -0.84722,-0.39153 -1.59162,-0.65515 -0.23949,-0.0848 -0.87233,-0.0264 -0.72549,-0.23375 0.43646,-0.6163 1.26922,-0.82895 1.83352,-1.33084 0.0597,-0.0531 -0.23314,-0.18813 -0.21244,-0.11097 0.0324,0.12067 0.17073,0.18246 0.25609,0.27368 0.70738,0.51812 1.43396,1.00626 2.17169,1.48048 0.26961,0.17331 0.54572,0.33637 0.81496,0.51023 0.20488,0.13231 0.74123,0.2044 0.60722,0.40817 -0.46726,0.71049 -1.30278,1.09328 -1.95417,1.63992 -0.77766,-0.74829 -1.73246,-1.29382 -2.53479,-2.01359 0.67601,-0.54747 1.32513,-1.12993 2.02804,-1.64241 0.0477,-0.0348 0.11698,0.0192 0.17307,0.0376 0.12857,0.0422 0.25453,0.0922 0.37963,0.14384 0.51303,0.21159 1.00913,0.46109 1.51318,0.69251 -0.6493,0.53422 -1.27826,1.09418 -1.94791,1.60267 -0.0263,0.0199 -0.0273,-0.0619 -0.051,-0.0848 -0.0836,-0.0804 -0.17754,-0.14945 -0.268,-0.22211 -0.63006,-0.50603 -1.2846,-0.98005 -1.95729,-1.42795 -1.23179,-0.78355 -1.35295,-0.53095 0.95898,-2.11846 0.11652,-0.08 0.19691,0.20333 0.30382,0.29579 0.47302,0.40908 1.07333,0.86072 1.57852,1.20568 0.34917,0.23842 0.71116,0.45751 1.06673,0.68627 0.32355,0.18984 0.6458,0.38192 0.97065,0.56952 0.23144,0.13367 0.83542,0.1649 0.69818,0.39424 -1.40828,2.35339 -1.73405,1.70602 -3.22667,1.02973 -1.34875,-0.60007 -2.69277,-1.21106 -4.03445,-1.82651 0,0 2.1804,-1.43462 2.1804,-1.43462 z"
         id="path4482"
         style="opacity:0.469;fill:#ffffff;fill-opacity:1;stroke:none" />
      <path
         inkscape:connector-curvature="0"
         d="m 566.03776,377.69961 c -1.25557,-0.83913 -2.57671,-1.57591 -3.8732,-2.34964 -0.16007,-0.0725 -0.32013,-0.14498 -0.48019,-0.21748 -0.0329,0.0434 -0.14901,0.1513 -0.0987,0.1303 0.81635,-0.34095 1.54162,-0.96491 2.41622,-1.09821 0.29631,-0.0452 0.41941,0.42864 0.63912,0.63253 0.69886,0.64852 1.12273,0.9797 1.86106,1.5887 0.32748,0.24891 1.15468,0.89321 1.55173,1.14431 0.12995,0.0822 0.53544,0.11831 0.41124,0.20895 -2.19808,1.60416 -1.84913,1.54983 -2.87773,0.35065 -0.72194,-0.79201 -1.48195,-1.54815 -2.23496,-2.31034 -0.17126,-0.17336 -0.34768,-0.34165 -0.51632,-0.51756 -0.0866,-0.0903 -0.18575,-0.17284 -0.24896,-0.28077 -0.0375,-0.0641 -0.029,-0.14569 -0.0434,-0.21853 0.84623,-0.3658 1.66131,-0.81435 2.53869,-1.09741 0.11536,-0.0372 0.21273,0.11626 0.31839,0.17566 0.10309,0.0579 0.19777,0.13312 0.30784,0.17633 0.0544,0.0214 0.22528,-0.0167 0.17498,0.0132 -2.34791,1.39311 -1.72074,1.86513 -2.60187,0.85193 -0.89729,-0.88611 -1.90812,-1.66504 -2.9698,-2.3456 -0.47337,-0.30344 -0.35297,-0.38605 -0.53683,-0.14723 0.81431,-0.38125 1.55879,-0.98021 2.44294,-1.14376 0.27319,-0.0505 0.39175,0.39438 0.59721,0.58139 0.95778,0.87178 1.98546,1.67419 3.01007,2.46522 0.0807,0.0547 0.32405,0.11115 0.2422,0.16419 -0.75147,0.48697 -1.52221,1.00491 -2.3896,1.22736 -0.23343,0.0599 -0.35512,-0.32667 -0.54529,-0.47469 -0.79821,-0.62135 -1.67314,-1.13239 -2.53659,-1.65499 1.41278,-0.64855 -1.09848,-0.19873 -0.83526,-0.34529 0.77773,-0.43305 1.52628,-0.98941 2.39593,-1.17941 0.2519,-0.055 0.36687,0.36277 0.55996,0.53363 0.74769,0.66158 1.03249,0.85336 1.84585,1.47264 0.32435,0.22599 0.64581,0.45618 0.97306,0.67796 0.46187,0.31301 0.9422,0.63993 1.44539,0.89025 0.0979,0.0487 0.3959,0.0526 0.30687,0.11606 -2.12926,1.51877 -1.67767,1.87209 -2.43031,1.07194 -0.51501,-0.40867 -1.09049,-0.74237 -1.69939,-0.99104 -0.14388,-0.0587 -0.2885,-0.13407 -0.44363,-0.14347 -0.0508,-0.003 -0.15162,0.13187 -0.10559,0.11021 0.81359,-0.38284 1.6113,-0.79855 2.41695,-1.19782 0.76236,0.64158 1.63353,1.13636 2.48352,1.64923 0.57603,0.34757 1.15014,0.72175 1.76474,0.99968 -0.80495,0.43134 -1.53796,1.03893 -2.41484,1.29401 -0.24596,0.0716 -0.43363,-0.27308 -0.65567,-0.40079 -1.19562,-0.68767 -2.45256,-1.24489 -3.69874,-1.83166 -0.27508,-0.12132 -0.54064,-0.2624 -0.81201,-0.3914 -0.0413,-0.0196 -0.0959,-0.0206 -0.1253,-0.0555 -0.0543,-0.0647 -0.18347,-0.18187 -0.11223,-0.22731 2.45454,-1.56553 2.27026,-0.32162 2.39497,-1.32756 -0.73152,0.43323 -1.43432,0.91911 -2.19457,1.2997 -0.0536,0.0268 -0.0474,-0.1104 -0.0771,-0.16247 -0.0489,-0.0858 -0.10107,-0.16992 -0.15835,-0.25035 -0.15074,-0.21166 -0.32659,-0.40138 -0.47385,-0.61612 0,0 2.24208,-1.30417 2.24208,-1.30417 l 0,0 c 0.12612,0.22838 0.28559,0.41571 0.44209,0.62398 0.85148,1.13317 0.38722,0.67128 -1.83398,2.05109 -0.9552,-0.30323 0.14284,0.0785 2.11674,-1.29377 0.0682,-0.0474 -0.10296,-0.13128 -0.1424,-0.20433 -0.0168,-0.0311 0.0462,0.0539 0.0734,0.0765 0.0739,0.0612 0.14961,0.12045 0.22911,0.17414 0.14659,0.099 0.29904,0.18903 0.44856,0.28354 0.87527,0.49017 1.77176,0.92826 2.67967,1.35538 0.33908,0.15952 0.67702,0.32181 1.02102,0.47044 0.25454,0.10998 0.91966,0.0692 0.77391,0.30507 -0.42521,0.68819 -1.2649,1.0088 -1.89735,1.5132 -0.39077,-0.46617 -1.02873,-0.81397 -1.53242,-1.12388 -0.88577,-0.54499 -1.81101,-1.02096 -2.69519,-1.56842 0.60886,-0.57351 1.1904,-1.17748 1.82658,-1.72052 0.0326,-0.0278 0.0708,0.0488 0.1088,0.0685 0.13125,0.0681 0.26622,0.1288 0.39858,0.19473 0.6198,0.30872 1.23594,0.62671 1.81932,1.00125 0.95921,0.81292 0.69314,0.40527 -1.88414,1.66511 -0.0882,0.0431 -0.15055,-0.12595 -0.22792,-0.1863 -0.51474,-0.40152 -0.74739,-0.56369 -1.32151,-0.98028 -0.31899,-0.23147 -0.63858,-0.46211 -0.95787,-0.69317 -0.50048,-0.36137 -1.44412,-1.04563 -1.96322,-1.40964 -0.22844,-0.16019 -0.83395,-0.23328 -0.69075,-0.47274 1.43515,-2.39982 1.51837,-1.85927 2.61289,-1.10638 0.85526,0.56025 1.71805,1.10729 2.59379,1.63518 0.22016,0.13271 0.8116,0.17965 0.66488,0.39073 -0.4732,0.6808 -1.27496,1.06959 -1.98147,1.50347 -0.0694,0.0426 -0.0807,-0.14154 -0.121,-0.21231 -0.92879,-0.90284 -1.93702,-1.70607 -2.96911,-2.48774 -0.23574,-0.17854 -0.84355,-0.26263 -0.71296,-0.52795 0.37099,-0.75373 1.21814,-1.15719 1.82721,-1.73579 0.26453,0.349 0.78709,0.68084 1.11209,0.9272 0.79832,0.60515 1.60602,1.1981 2.39332,1.81777 0.16072,0.13406 0.61926,0.24406 0.48216,0.4022 -0.57329,0.6613 -1.39964,1.05534 -2.14433,1.51514 -0.0533,0.0329 -0.11083,-0.0586 -0.16571,-0.0888 -1.16625,-0.64312 -1.26735,-0.10063 1.41704,-1.59841 -0.0672,-0.0385 -0.17661,-0.18896 -0.20157,-0.11563 -0.0359,0.10542 0.0749,0.21233 0.13726,0.30461 0.13249,0.19605 0.28888,0.37515 0.4433,0.55444 0.70168,0.81471 1.48454,1.55124 2.27198,2.28141 0.21589,0.19134 0.44555,0.3682 0.64768,0.57403 0.151,0.15377 0.57095,0.35989 0.40832,0.50129 -0.66327,0.5767 -1.52044,0.90834 -2.35312,1.18967 -0.13735,0.0464 -0.22037,-0.18846 -0.33023,-0.28307 -0.93263,-0.80318 -0.33034,-0.29623 -1.44759,-1.21627 -1.03178,-0.84178 -0.88809,-0.73723 -1.94064,-1.54562 -0.25859,-0.19861 -0.91192,-0.29195 -0.78009,-0.59018 1.14689,-2.59453 1.34908,-2.08684 2.34944,-1.42178 1.29094,0.83613 2.63497,1.58218 4.02603,2.23962 0,0 -2.18128,1.41793 -2.18128,1.41793 z"
         id="path4484"
         style="opacity:0.469;fill:#ffffff;fill-opacity:1;stroke:none" />
      <path
         inkscape:connector-curvature="0"
         d="m 563.79774,376.33985 c -1.1582,-0.95467 -2.30364,-1.93493 -3.52573,-2.80805 -0.93428,-0.35006 -2.60351,-0.94712 2.69277,-0.92285 0.48477,0.002 0.75986,0.60232 1.14599,0.89543 1.41252,1.0722 2.8647,2.08666 4.32223,3.09604 -2.14293,0.53396 1.74463,0.51618 1.30426,0.75941 -0.80128,0.44258 -1.62585,0.99896 -2.54015,1.04354 -0.44927,0.0219 -0.67743,-0.59263 -1.03202,-0.86937 -1.3746,-1.07279 -1.97064,-1.43638 -3.44228,-2.42995 -1.59089,-1.02148 -1.54645,-1.00741 -3.01109,-1.90079 -0.2379,-0.14511 -0.8892,-0.20896 -0.71774,-0.42863 1.82543,-2.33868 1.74859,-1.72602 3.01884,-0.84424 0.45779,0.31778 0.93037,0.6137 1.39555,0.92055 1.66421,1.04275 3.32696,2.09083 5.03591,3.05965 0.37753,0.21403 0.75128,0.43705 1.14467,0.6203 0.17411,0.0811 0.70642,0.057 0.55073,0.16948 -0.71129,0.51385 -1.58024,0.76338 -2.37036,1.14506 -1.11979,-0.92672 -2.40139,-1.63889 -3.68015,-2.31855 -0.40803,-0.21687 -1.89755,-0.98652 -2.46601,-1.16931 -0.13056,-0.042 -0.27404,-0.0118 -0.41105,-0.0177 0.82313,-0.36124 1.57715,-0.97443 2.46939,-1.08374 0.36435,-0.0446 0.5695,0.46438 0.87042,0.67459 0.4332,0.30262 0.88237,0.58188 1.33008,0.86259 0.53694,0.33666 2.26877,1.38066 2.85864,1.70575 0.34803,0.1918 0.70872,0.35969 1.06307,0.53954 0.18787,0.0774 0.71546,0.0973 0.56362,0.23236 -0.66733,0.5936 -1.46112,1.103 -2.324,1.33353 -0.31901,0.0852 -0.57005,-0.33449 -0.86581,-0.48133 -1.49951,-0.74451 -3.06702,-1.3516 -4.61843,-1.97631 -0.65024,-0.2369 -1.29156,-0.48011 -1.9494,-0.69263 -0.0865,-0.0279 -0.3375,-0.02 -0.2629,-0.0718 2.50542,-1.74124 1.52617,-1.67043 2.9091,-1.20855 0.24821,0.0829 0.49985,0.15511 0.74978,0.23267 0,0 -1.99133,1.36649 -1.99133,1.36649 l 0,0 c -0.26825,-0.0653 -0.53541,-0.13523 -0.80476,-0.19585 -0.19667,-0.0443 -0.71985,0.0379 -0.593,-0.11874 0.50599,-0.62494 1.22849,-1.04316 1.89634,-1.49099 0.0509,-0.0341 0.0708,0.10433 0.12258,0.13719 0.44275,0.28098 1.32761,0.65806 1.72356,0.83957 1.57355,0.67133 3.1501,1.32335 4.76992,1.87712 0.34847,0.11913 1.21052,-0.003 1.05415,0.33071 -1.09256,2.32973 -1.47959,1.80605 -2.3156,1.14596 -0.64299,-0.40748 -1.69069,-1.07537 -2.29746,-1.43978 -1.39035,-0.83502 -1.57078,-0.90671 -2.96519,-1.67893 -0.35395,-0.19602 -1.17995,-0.20651 -1.05927,-0.5927 0.24317,-0.77815 1.18097,-1.12425 1.77145,-1.68638 0.7985,0.55762 1.7068,1.00094 2.5605,1.45874 1.3494,0.72362 2.71001,1.42535 4.06492,2.13846 -0.6305,0.52487 -1.17572,1.17378 -1.8915,1.57463 -0.14087,0.0789 -0.24577,-0.21003 -0.37683,-0.30433 -0.335,-0.24105 -0.6762,-0.47354 -1.0205,-0.70111 -1.63966,-1.08377 -3.31981,-2.10866 -5.04778,-3.04578 -0.52274,-0.26677 -1.0336,-0.5582 -1.56821,-0.80029 -0.29932,-0.13554 -1.09293,-0.0458 -0.92871,-0.33038 0.39815,-0.69001 1.18098,-1.14037 1.9315,-1.40748 0.23665,-0.0842 0.34312,0.36888 0.53656,0.52913 0.87369,0.72378 1.90194,1.38164 2.83037,2.01253 1.64555,1.06254 2.0002,1.30943 3.64825,2.30545 0.4156,0.25117 1.35095,0.26008 1.25693,0.73649 -0.15453,0.78294 -1.08247,1.18822 -1.7291,1.65591 -0.37185,0.26895 -0.18021,-2.84399 -0.99557,-0.95093 -1.41219,-1.07788 -2.8362,-2.12951 -4.34268,-3.07452 -0.4334,-0.27187 -1.36448,-0.26891 -1.32257,-0.77881 0.10142,-1.23408 2.31111,-2.0035 1.44014,-1.69392 1.07869,1.04838 2.30863,1.9488 3.62695,2.67355 0,0 -2.19199,1.44225 -2.19199,1.44225 z"
         id="path4486"
         style="opacity:0.469;fill:#ffffff;fill-opacity:1;stroke:none" />
      <path
         inkscape:connector-curvature="0"
         d="m 558.21665,370.24882 c 3.22797,1.57609 6.4974,3.06515 9.75538,4.57793 -1.61646,0.81596 2.16787,0.23553 1.69764,0.61036 -0.68284,0.5443 -1.46123,1.03129 -2.31041,1.23488 -0.30347,0.0728 -0.52336,-0.34139 -0.79798,-0.48963 -1.21225,-0.65437 -1.7703,-0.85588 -3.07046,-1.41289 -0.84606,-0.33258 -1.92597,-0.79087 -2.82842,-1.03481 -0.22221,-0.0601 -0.85985,0.0362 -0.68178,-0.10968 0.64815,-0.53093 1.41231,-0.97815 2.23043,-1.15889 0.27273,-0.0603 0.42687,0.36163 0.65615,0.52115 0.40315,0.28049 0.82597,0.53157 1.23896,0.79735 0.49959,0.28091 0.9943,0.57066 1.49876,0.84272 0.89959,0.48517 1.66439,0.85478 2.56781,1.2972 0.16636,0.0815 0.64044,0.12271 0.49969,0.24315 -2.085,1.78415 -1.75456,1.64378 -3.31961,1.06859 -1.17755,-0.35575 -2.33073,-0.82537 -3.53533,-1.09003 -0.12222,-0.0269 -0.48359,0.0333 -0.37437,-0.0278 2.67463,-1.49505 1.83028,-1.55212 3.64462,-0.76283 1.33011,0.51293 2.67034,1.01813 4.03966,1.41911 0.28882,0.0846 0.57793,0.17824 0.87635,0.21712 0.11422,0.0149 0.44256,-0.11209 0.34055,-0.0586 -0.80388,0.42163 -1.63945,0.77986 -2.45918,1.16979 -1.78295,-1.07426 -3.73408,-1.83937 -5.67403,-2.57961 0.74046,-0.48455 1.41447,-1.09041 2.2214,-1.45365 0.16662,-0.075 0.33051,0.15604 0.49778,0.22957 0.86312,0.37943 1.74465,0.69663 2.63274,1.0116 0,0 -1.97112,1.32906 -1.97112,1.32906 l 0,0 c -0.89146,-0.33635 -1.7925,-0.69989 -2.71647,-0.93939 -0.188,-0.0487 -0.70649,0.0421 -0.574,-0.0999 0.56968,-0.61054 1.35533,-0.97583 2.03299,-1.46375 0.64161,0.50234 1.43978,0.79323 2.17879,1.11694 1.16334,0.50956 2.34026,0.98622 3.50318,1.49662 -0.58545,0.56019 -1.12307,1.17508 -1.75636,1.68055 -0.0662,0.0528 -0.15889,-0.0586 -0.23805,-0.0887 -0.25798,-0.098 -0.51461,-0.19952 -0.77335,-0.29544 -1.34523,-0.49871 -2.70299,-0.96236 -4.06804,-1.40378 -1.74029,-0.51081 -1.8378,-0.15426 0.37745,-1.97063 0.0663,-0.0543 0.13361,0.11125 0.21241,0.14501 0.29241,0.12527 0.59392,0.22871 0.89558,0.32967 0.42656,0.14276 0.85594,0.27753 1.28841,0.40125 0.4443,0.12711 0.89412,0.23404 1.34119,0.35106 1.40758,0.24063 2.1234,0.0962 -0.73718,1.61339 -0.13409,0.0711 -0.18908,-0.24271 -0.31221,-0.33148 -1.23298,-0.88892 -2.6855,-1.43188 -3.99066,-2.19494 -0.46291,-0.23941 -0.93002,-0.47086 -1.38874,-0.71822 -0.30818,-0.16619 -1.0832,-0.21704 -0.91145,-0.52216 0.41797,-0.74252 1.29461,-1.13806 2.05849,-1.51557 0.17573,-0.0868 0.36059,0.15388 0.54081,0.23098 1.69367,0.72453 0.69164,0.30168 2.69355,1.13329 0.57412,0.22788 1.14824,0.45575 1.72236,0.68362 0.51895,0.20306 1.03869,0.40412 1.55686,0.60918 0.34052,0.13476 1.17722,0.0799 1.01918,0.41028 -1.10752,2.31523 -1.43635,1.80474 -2.38464,1.26699 -0.32909,-0.18662 -0.66116,-0.36795 -0.99174,-0.55193 -2.91282,-1.54671 -5.90078,-2.99337 -9.03805,-4.03274 -0.3354,-0.11112 -0.68086,-0.18919 -1.02129,-0.28379 0,0 2.10575,-1.44761 2.10575,-1.44761 z"
         id="path4488"
         style="opacity:0.469;fill:#ffffff;fill-opacity:1;stroke:none" />
      <path
         inkscape:connector-curvature="0"
         d="m 564.83529,377.72219 c -1.41628,-1.16212 -3.03355,-2.03581 -4.63931,-2.90185 1.14391,-0.3567 -1.40445,-0.31307 -1.0741,-0.53989 0.74973,-0.51478 1.53297,-1.05565 2.41851,-1.26282 0.31372,-0.0734 0.54591,0.34261 0.82471,0.5041 1.20692,0.6991 1.58286,0.87549 2.8569,1.53892 0.57833,0.27939 2.09615,1.02588 2.74968,1.29542 0.26875,0.11085 0.53746,0.23804 0.82444,0.28448 0.097,0.0157 0.36493,-0.14567 0.27479,-0.1066 -2.76302,1.19773 -1.77301,1.61908 -3.27382,0.29148 -1.20488,-0.87638 -2.46339,-1.67597 -3.76686,-2.3971 -0.21928,-0.12132 -0.44298,-0.23458 -0.66723,-0.34646 -0.0451,-0.0225 -0.18716,-0.0377 -0.14035,-0.0564 0.90419,-0.36182 1.83311,-0.65848 2.74966,-0.98771 0.88881,0.59626 1.81511,1.13371 2.73884,1.67325 0.19874,0.11607 0.39975,0.22825 0.59771,0.34565 0.0525,0.0312 0.20863,0.0733 0.15366,0.0999 -0.88434,0.42925 -1.81188,0.76311 -2.71782,1.14466 -0.35324,-0.15434 -0.70207,-0.31918 -1.05972,-0.46301 -0.64392,-0.25897 -2.02554,-0.76443 -2.70252,-0.95078 -0.32876,-0.0905 -0.66154,-0.19111 -1.00225,-0.20482 -0.13677,-0.006 -0.50841,0.20306 -0.38262,0.14908 0.80653,-0.34607 1.61668,-0.68363 2.42502,-1.02545 0.25208,0.2337 0.49306,0.47997 0.75623,0.7011 0.65755,0.5525 1.6315,1.25642 2.32818,1.74535 0.84015,0.58961 1.64943,1.14241 2.5763,1.58037 0.0201,-0.033 0.0958,-0.11453 0.0604,-0.099 -0.86896,0.3797 -1.653,0.99762 -2.57949,1.19982 -0.29407,0.0642 -0.51028,-0.3197 -0.77197,-0.46841 -0.8213,-0.46669 -1.67468,-0.87677 -2.51567,-1.30616 -0.0849,-0.0432 -0.33362,-0.0761 -0.25477,-0.12956 0.7619,-0.51662 1.5469,-1.03507 2.41673,-1.33639 0.19812,-0.0686 0.36316,0.2098 0.54761,0.30952 0.63315,0.34231 1.27195,0.66056 1.93664,0.93591 0.0845,0.013 0.32599,-0.007 0.25359,0.0389 -0.74525,0.46844 -1.47866,1.00341 -2.32058,1.26033 -0.20305,0.062 -0.32299,-0.27623 -0.49454,-0.40128 -0.83977,-0.61218 -1.74368,-1.13303 -2.63359,-1.667 -0.25855,-0.24403 -0.65136,-0.31361 -0.92185,-0.54709 -0.0468,-0.0404 -0.15208,-0.12598 -0.0986,-0.15693 0.79581,-0.46063 1.61583,-0.89039 2.47482,-1.21846 0.005,-0.002 0.59797,0.32027 0.59972,0.32122 0.008,0.004 0.32975,0.16706 0.39059,0.18592 0.028,0.009 0.0614,-0.0345 0.086,-0.0185 0.15152,0.0983 0.26735,0.24299 0.39924,0.3664 0.44902,0.4398 0.93697,0.83713 1.39766,1.26439 0.0595,0.0552 0.23769,0.12118 0.17343,0.17066 -0.71229,0.54845 -1.51691,0.96518 -2.27536,1.44777 -0.80678,-0.50674 -1.69901,-0.86577 -2.57069,-1.24478 -0.52841,-0.22976 -0.31933,-0.22917 -0.61948,-0.20208 0.8093,-0.42247 1.56065,-0.98225 2.42791,-1.26742 0.17772,-0.0584 0.30775,0.21285 0.46336,0.31672 0.70372,0.46971 1.41741,0.92213 2.10076,1.42144 1.05788,0.79319 0.29725,0.63234 -2.04403,1.59963 -0.0564,0.0233 -0.85382,-0.56957 -0.94793,-0.64027 -0.97473,-0.77164 0.009,-0.67649 2.13446,-1.51277 0.039,-0.0153 0.69559,0.4979 0.91762,0.65895 -0.65677,0.20565 0.39168,0.10706 0.29399,0.16142 -0.78234,0.43526 -1.52166,0.97934 -2.37161,1.26058 -0.16298,0.0539 -0.24448,-0.24172 -0.37675,-0.35116 -0.42105,-0.34839 -0.85248,-0.63394 -1.30101,-0.94623 -0.21194,-0.14307 -0.42804,-0.28015 -0.63582,-0.42921 -0.15704,-0.11265 -0.30673,-0.23524 -0.45804,-0.35549 -0.0852,-0.0677 -0.1804,-0.12595 -0.2515,-0.20841 -0.0418,-0.0485 -0.1353,-0.14417 -0.0792,-0.17511 2.47517,-1.36494 1.77224,-1.64422 2.93468,-0.92224 0.93843,0.66518 1.87381,1.33204 2.82339,1.98153 0.24062,0.17886 0.48306,0.33205 0.76394,0.43361 0,0 -2.15327,1.42729 -2.15327,1.42729 l 0,0 c -0.26324,-0.14521 -0.50612,-0.31474 -0.73704,-0.50857 -0.91421,-0.67745 -1.81089,-1.39018 -2.79877,-1.95757 -0.1444,-0.0635 -0.54499,-0.0792 -0.43322,-0.19057 0.5703,-0.56805 1.35352,-0.87465 1.9932,-1.36325 0.0376,-0.0287 -0.14091,-0.10701 -0.12779,-0.0616 0.0266,0.0921 0.10934,0.15849 0.17573,0.22764 0.37701,0.39268 0.5335,0.46668 1.00858,0.8085 1.44431,0.96593 -0.0135,-0.003 1.38831,0.91029 0.15409,0.10035 0.57978,0.16644 0.45939,0.30544 -2.03597,2.35067 -1.44326,1.99852 -2.26353,1.31373 -0.28236,-0.20985 -0.32792,-0.25581 -0.64181,-0.43686 -0.0985,-0.0568 -0.38782,-0.082 -0.30259,-0.15715 0.63134,-0.55705 1.4008,-0.93485 2.08937,-1.41937 0.0154,-0.0109 -0.0369,-0.008 -0.0553,-0.0119 0.0511,0.0535 0.10225,0.10698 0.15338,0.16048 0.25678,0.19525 0.33603,0.27344 0.63261,0.42176 0.10492,0.0525 0.41315,0.0543 0.32594,0.13273 -0.6211,0.55887 -1.37294,0.95259 -2.06019,1.42776 -0.0139,0.01 0.0496,-0.0171 0.04,-0.031 -0.0578,-0.0831 -0.14156,-0.1446 -0.21233,-0.2169 -0.65125,-0.52631 -1.3326,-1.00246 -2.06654,-1.40809 -0.17502,-0.0967 -0.65243,-0.11435 -0.53322,-0.2749 0.49305,-0.66406 1.2745,-1.05449 1.91174,-1.58173 0.0716,0.22399 0.0134,0.0981 0.45159,0.32048 0.84435,0.42856 1.74085,0.80824 2.66077,1.03187 -0.68447,0.47791 -1.33281,1.01225 -2.0534,1.43373 -0.0578,0.0338 -0.0603,-0.12114 -0.10429,-0.17166 -0.40975,-0.47111 -0.93825,-0.83116 -1.41164,-1.23159 -0.27782,-0.18511 -0.57567,-0.29513 -0.84759,-0.49546 -0.0971,-0.0499 -0.19142,-0.10543 -0.29118,-0.14968 -0.10172,-0.0451 -0.39713,-0.046 -0.31228,-0.11798 0.62565,-0.53082 1.39415,-0.869 2.0526,-1.35854 0.0389,-0.029 -0.14824,-0.11718 -0.12501,-0.0746 0.11364,0.20834 0.65069,0.55818 0.73993,0.62486 0.8917,0.57039 1.79582,1.10366 2.717,1.62487 0.21283,0.12042 0.78097,0.16632 0.63697,0.36396 -1.4476,1.98674 -1.36149,1.96038 -2.21226,1.42874 -0.62868,-0.33389 -1.25885,-0.67393 -1.9185,-0.94408 -0.20178,-0.0826 -0.74681,-0.0445 -0.6163,-0.21922 1.56239,-2.0908 1.47142,-2.10163 2.00925,-1.31718 0.78614,0.51323 1.61015,0.9284 2.45668,1.33472 0.28949,0.13895 0.98435,0.10562 0.87318,0.40687 -1.67645,4.54254 -1.65428,2.38494 -1.65473,1.60975 -1.86261,-1.42292 -3.79649,-2.74564 -5.72107,-4.08215 0.58632,-0.59942 1.12251,-1.25237 1.75896,-1.79827 0.0734,-0.063 0.19368,0.0177 0.28689,0.0435 0.30646,0.0849 0.60769,0.18784 0.90951,0.28802 1.31818,0.43754 2.62325,0.91787 3.96398,1.28515 -0.53473,0.51738 -1.06151,1.04311 -1.60418,1.55216 -0.0238,0.0223 0.0655,-0.0641 0.0432,-0.0879 -0.14479,-0.15445 -0.32201,-0.2762 -0.49666,-0.39584 -0.89559,-0.61349 -1.86877,-1.11264 -2.83378,-1.60439 0.54363,-0.54189 1.10695,-1.06473 1.63091,-1.62568 0.0273,-0.0293 -0.14717,-0.0214 -0.11992,0.008 0.2964,0.3194 1.35485,0.99262 1.56406,1.12861 1.15294,0.74941 1.57994,0.99272 2.7611,1.70416 1.66165,1.08458 1.5445,0.52011 -0.75559,2.4657 -0.0545,0.0461 -0.13254,-0.0535 -0.19594,-0.0862 -0.23643,-0.1221 -0.4681,-0.25321 -0.70308,-0.37806 -0.39192,-0.20824 -0.78254,-0.41903 -1.17763,-0.62118 -0.49053,-0.25099 -0.98606,-0.4921 -1.47909,-0.73815 -1.24487,-0.60684 -1.77873,-0.88843 -3.03295,-1.41997 -0.3281,-0.13906 -1.14318,-0.0632 -0.99623,-0.38782 0.33119,-0.73166 1.18166,-1.10275 1.86323,-1.52757 0.31034,-0.19342 0.4222,1.58999 0.88858,0.64338 1.60788,0.94905 3.24544,1.84718 4.87614,2.75605 0,0 -2.19592,1.4208 -2.19592,1.4208 z"
         id="path4490"
         style="opacity:0.469;fill:#ffffff;fill-opacity:1;stroke:none" />
      <path
         inkscape:connector-curvature="0"
         d="m 562.85822,374.68308 c 1.06815,0.64985 2.1934,1.19601 3.31669,1.74171 1.25578,0.61006 0.64979,0.35607 1.70781,0.75762 0.0676,-0.0227 0.26627,-0.10028 0.20269,-0.0681 -0.80466,0.40763 -1.558,0.9563 -2.42779,1.19528 -0.205,0.0563 -0.33139,-0.26684 -0.50503,-0.3895 -0.51559,-0.36424 -1.06008,-0.6891 -1.61837,-0.98227 -0.051,0.003 -0.19775,0.0323 -0.153,0.008 0.76779,-0.42182 1.49896,-0.94421 2.33484,-1.20638 0.15733,-0.0494 0.21192,0.25301 0.32637,0.37172 0.44484,0.4614 0.92993,0.87276 1.43498,1.26541 0.0562,0.0406 0.22681,0.0841 0.16866,0.12188 -0.74973,0.48761 -1.51062,0.98523 -2.34914,1.29626 -0.13893,0.0515 -0.21345,-0.20567 -0.32345,-0.30495 -0.39961,-0.36062 -0.71495,-0.64349 -1.18322,-0.90957 -0.98818,0.0297 -0.95405,0.0583 2.03384,-1.19647 0.0753,-0.0316 0.0658,0.15014 0.10938,0.21923 0.18344,0.29111 0.42369,0.53108 0.60686,0.8217 -0.75662,0.4728 -1.44586,1.0763 -2.26986,1.4184 -0.1553,0.0645 -0.26183,-0.21123 -0.39707,-0.31115 -0.21751,-0.16068 -0.43749,-0.31813 -0.66092,-0.47047 -0.84114,-0.57351 -1.71867,-1.07663 -2.59999,-1.5845 -0.16265,-0.0836 -0.62013,-0.1244 -0.48795,-0.25078 0.62533,-0.59796 1.39232,-1.06383 2.19651,-1.38299 0.16547,-0.0657 0.26358,0.23966 0.40191,0.35172 0.6523,0.52842 1.34794,0.99896 2.04075,1.4715 1.27558,0.95135 1.29483,0.81826 -1.4674,2.12186 -0.14372,0.0678 -0.25011,-0.19625 -0.37855,-0.28985 -0.34266,-0.24968 -0.69292,-0.48878 -1.03735,-0.73603 -0.29797,-0.23011 -0.57894,-0.45097 -0.88168,-0.67207 -0.86579,-0.63235 -0.98733,-0.26534 2.07854,-1.5086 0.13764,-0.0558 0.20607,0.21446 0.31782,0.31231 0.16727,0.14646 0.34554,0.27986 0.5183,0.41979 0.17478,0.12736 1.00504,0.73783 1.20495,0.86269 0.13378,0.0836 0.27174,0.16453 0.42047,0.21707 0.0534,0.0189 0.21885,-0.0366 0.16965,-0.009 -2.39667,1.36502 -1.68854,1.81847 -2.66431,0.91978 -0.16483,-0.13431 -0.32815,-0.27049 -0.49449,-0.40294 -0.10178,-0.081 -0.70288,-0.53698 -0.84321,-0.67376 -0.047,-0.0458 -0.16882,-0.12563 -0.1135,-0.16099 2.35383,-1.50437 1.65511,-1.74085 2.84297,-1.06636 0.17723,0.096 0.35223,0.19615 0.5317,0.28785 0.17293,0.0884 0.34741,0.17403 0.52519,0.2522 0.11429,0.0503 0.22646,0.11643 0.35024,0.13274 0.0299,0.004 0.0662,-0.0951 0.0394,-0.0814 -2.59204,1.3245 -1.66947,1.84988 -2.80267,0.94834 -0.21619,-0.22867 -1.12783,-0.69427 -1.24836,-0.9784 -0.0389,-0.0918 -0.0579,-0.24866 0.0289,-0.29765 2.52753,-1.4263 1.85266,-1.36355 3.54931,-1.14485 1.44805,0.19371 0.70991,0.0995 2.21454,0.28147 0,0 -1.88432,1.3364 -1.88432,1.3364 l 0,0 c -1.53522,-0.167 -0.7753,-0.0927 -2.27963,-0.22388 -0.30071,-0.008 -1.06473,0.22936 -0.90212,-0.0237 0.37693,-0.58665 1.17015,-0.76568 1.70034,-1.2186 0.0616,-0.0526 -0.21913,-0.10572 -0.24123,-0.0279 -0.028,0.0986 0.10401,0.17976 0.17798,0.25068 0.2344,0.22476 0.72695,0.53631 0.98461,0.70904 1.1824,0.73674 0.71049,0.22788 -1.42529,1.95257 -0.0221,0.0178 -0.0128,-0.0603 -0.0356,-0.0774 -0.0917,-0.0687 -0.19606,-0.11868 -0.29738,-0.17208 -0.17151,-0.0904 -0.34619,-0.17465 -0.52072,-0.25905 -0.18342,-0.0887 -0.36871,-0.17349 -0.55307,-0.26023 -0.15817,-0.0542 -0.59087,-0.0426 -0.47453,-0.16273 0.56997,-0.58842 1.32547,-0.96383 2.00661,-1.41896 0.0274,-0.0183 -0.044,0.068 -0.0258,0.0954 0.0766,0.11567 0.18406,0.20856 0.28798,0.30046 0.28074,0.24825 0.72248,0.55519 1.02314,0.77218 1.11,0.79324 0.72853,0.30838 -1.60767,1.88187 -0.0455,0.0307 -0.0882,-0.0654 -0.13243,-0.0979 -0.31246,-0.22967 -0.62053,-0.46544 -0.9369,-0.6897 -0.21241,-0.15056 -0.42993,-0.29376 -0.64489,-0.44065 -0.19463,-0.12814 -0.38622,-0.26101 -0.58389,-0.38443 -0.11857,-0.074 -0.46541,-0.11102 -0.36436,-0.2076 2.79581,-2.67201 1.5021,-2.00227 2.2342,-1.27961 0.26412,0.26071 0.52969,0.45415 0.82358,0.68605 0.31654,0.21365 0.72477,0.51456 1.08516,0.66145 0.0982,0.04 0.39356,-0.0148 0.3133,0.0544 -3.38516,2.92015 -1.46055,1.97941 -2.18633,1.19172 -0.13124,-0.14242 -0.28832,-0.25865 -0.43248,-0.38798 -0.68696,-0.49009 -1.37305,-1.00288 -2.10823,-1.42013 -0.16107,-0.0914 -0.62916,-0.10725 -0.50075,-0.24071 0.58729,-0.6104 1.33085,-1.0788 2.10376,-1.42539 0.15017,-0.0673 0.25643,0.20636 0.38465,0.30954 0.8614,0.54654 1.73566,1.07154 2.62513,1.57156 0.24581,0.13818 0.48887,0.28269 0.74454,0.40164 0.12991,0.0604 0.51385,0.0378 0.40821,0.13464 -0.62119,0.56928 -1.39757,0.94161 -2.09636,1.41242 -0.11554,-0.32432 -0.36533,-0.5435 -0.57212,-0.8145 -0.078,-0.10223 -0.31929,-0.22936 -0.22312,-0.31472 1.91028,-1.69557 1.46591,-1.84953 2.42351,-1.36286 0.40447,0.29958 0.77432,0.64214 1.18586,0.9322 0.1197,0.0844 0.47502,0.12967 0.37198,0.23374 -1.89134,1.91032 -1.68849,2.19108 -2.12977,1.3211 -0.45722,-0.45453 -0.94637,-0.86311 -1.43704,-1.28088 -0.13914,-0.11847 -0.53269,-0.21813 -0.41514,-0.35805 1.66334,-1.97987 1.42169,-2.13172 2.1503,-1.48805 0.51382,0.36179 1.04121,0.6958 1.57603,1.02583 0.19548,0.12064 0.70798,0.16593 0.5869,0.36114 -0.437,0.70457 -1.19794,1.14977 -1.8453,1.66776 -0.0398,0.0319 -0.0795,-0.0639 -0.11931,-0.0958 -1.66347,-0.9309 -3.39551,-1.73199 -5.16924,-2.43017 0,0 2.18128,-1.41792 2.18128,-1.41792 z"
         id="path4492"
         style="opacity:0.469;fill:#ffffff;fill-opacity:1;stroke:none" />
      <path
         inkscape:connector-curvature="0"
         d="m 569.08964,382.30841 c -1.89706,-1.89983 -3.87782,-3.7098 -5.88593,-5.491 -0.50285,-0.48076 -1.27573,-1.18143 -1.75212,-1.75077 -0.0941,-0.11246 -0.35123,-0.27647 -0.23817,-0.36984 2.37775,-1.96367 2.02122,-1.72267 3.45111,-0.39605 0.21619,0.20691 0.43352,0.41264 0.64858,0.62073 0.37021,0.31865 0.68494,0.69295 1.03427,1.03246 0.0648,0.063 0.28167,0.12806 0.20555,0.17675 -2.33073,1.49055 -1.77375,1.76919 -2.7876,0.77364 -0.55649,-0.4677 -0.69276,-0.6046 -1.28369,-1.01491 -0.15162,-0.10528 -0.30302,-0.21337 -0.46838,-0.29539 -0.0528,-0.0262 -0.22715,0.004 -0.17507,-0.0238 2.53689,-1.33883 1.82133,-1.78132 2.88367,-0.62401 0.22394,0.22654 0.44648,0.45445 0.67181,0.6796 0.88858,0.88786 0.47283,0.46161 1.32001,1.29159 0.14368,0.14076 0.29447,0.27498 0.4276,0.42576 0.0608,0.0688 0.22721,0.1782 0.15144,0.23003 -0.75724,0.51798 -1.61052,0.87924 -2.41579,1.31886 -0.68496,-0.54786 -1.41379,-1.03835 -2.14789,-1.51714 -0.54154,-0.35319 -1.08288,-0.71054 -1.66667,-0.99025 0.76176,-0.43231 1.45834,-1.00825 2.28528,-1.29692 0.16353,-0.0571 0.23841,0.25142 0.362,0.37278 0.78287,0.76873 1.62571,1.47566 2.46583,2.18055 0.0575,0.0521 0.23886,0.11644 0.17235,0.15634 -0.77964,0.46766 -1.56933,0.96528 -2.44567,1.2073 -0.19568,0.054 -0.30143,-0.27199 -0.45329,-0.4067 -0.5417,-0.48051 -1.07714,-0.96745 -1.61837,-1.44847 -0.0731,-0.0523 -0.29283,-0.10514 -0.21937,-0.157 0.71745,-0.50656 1.47647,-0.9716 2.28922,-1.30441 0.11211,-0.0459 0.16236,0.17999 0.24831,0.26534 0.31263,0.31044 0.64348,0.60533 0.97447,0.89592 0.0471,0.0434 0.19362,0.0935 0.1412,0.13033 -2.43951,1.71285 -1.65977,1.8665 -2.68504,0.95494 -0.19121,-0.17 -0.36097,-0.29945 -0.56087,-0.4572 -0.0547,-0.0359 -0.22042,-0.0745 -0.1641,-0.10782 0.76931,-0.45548 1.54902,-0.91615 2.39279,-1.21171 0.12661,-0.0444 0.19917,0.17978 0.29976,0.26855 0.34579,0.30515 0.687,0.61311 1.04826,0.89976 0.0661,0.0422 0.26506,0.0856 0.19823,0.12659 -0.75583,0.46355 -1.53559,0.90859 -2.3709,1.20592 -0.12168,0.0433 -0.18802,-0.17741 -0.28765,-0.2596 -0.28756,-0.23722 -0.59459,-0.45592 -0.90997,-0.65415 -0.0245,-0.0108 -0.0965,-0.019 -0.0734,-0.0325 3.14008,-1.82903 1.62758,-1.52494 3.37982,-0.49279 -0.003,-0.0413 0.0269,-0.14323 -0.01,-0.12397 -0.79099,0.41526 -1.49048,1.00846 -2.31769,1.34585 -0.12879,0.0525 -0.2082,-0.18469 -0.31709,-0.27122 -0.35558,-0.28256 -0.7245,-0.54717 -1.11536,-0.77784 -0.0344,-0.0104 -0.134,-0.0129 -0.10307,-0.0311 0.7698,-0.45279 1.51737,-0.96274 2.34848,-1.28966 0.11666,-0.0459 0.17908,0.17567 0.27328,0.25839 0.35341,0.31037 0.7298,0.59395 1.10929,0.87108 0.0805,0.0487 0.15572,0.10736 0.24147,0.146 0.0222,0.01 0.0486,-0.003 0.0729,-0.004 -0.76234,0.45263 -1.50092,0.94792 -2.28704,1.35788 -0.002,0.001 -0.2816,-0.20178 -0.40256,-0.23821 0.17853,0.9871 -0.0424,-0.0148 2.23842,-1.25012 0.0466,-0.0252 0.0741,0.0759 0.11129,0.11365 0.14969,0.15187 0.30854,0.29215 0.44425,0.45659 -0.75992,0.47176 -1.46774,1.04021 -2.27975,1.41527 -0.10955,0.0506 -0.17884,-0.16259 -0.27531,-0.2351 -0.48213,-0.36239 -1.01185,-0.64524 -1.47424,-1.03528 -0.62384,-0.86221 -0.25298,-0.24853 2.1456,-1.62274 0.0686,-0.0393 0.4309,0.28625 0.60483,0.20724 -2.1701,1.44426 -1.68695,1.88223 -2.69808,0.96335 0,0 2.1903,-1.36175 2.1903,-1.36175 l 0,0 c 1.08305,0.9182 1.01601,0.32556 -1.63561,1.92153 -0.12016,-0.0639 -0.26501,-0.14509 -0.40401,-0.15172 -0.046,-0.002 -0.17235,0.057 -0.13486,0.0302 2.10618,-1.50431 1.88555,-2.24559 2.11778,-1.33317 0.28358,0.31005 0.61081,0.52894 0.97385,0.74189 0.15194,0.0891 0.30516,0.17672 0.46391,0.25303 0.0853,0.041 0.33939,0.0378 0.26641,0.098 -0.65737,0.54235 -1.41269,0.95366 -2.11903,1.43049 -0.0748,-0.17632 -0.25808,-0.29365 -0.3946,-0.42268 -0.0614,-0.058 -0.24473,-0.11983 -0.18192,-0.17624 1.96172,-1.76205 1.4649,-2.13151 2.22283,-1.48245 0.0906,0.0592 0.17903,0.12163 0.27018,0.17994 0.0567,0.0363 0.22508,0.0626 0.17268,0.10497 -2.39041,1.93138 -1.49049,1.99506 -2.38671,1.24138 -0.36752,-0.29916 -0.73864,-0.59246 -1.12368,-0.86902 -0.10538,-0.0757 -0.41208,-0.13016 -0.32001,-0.22156 1.87809,-1.86451 1.6262,-2.22577 2.10552,-1.43975 0.35537,0.28438 0.71912,0.54811 1.09661,0.8027 0.12417,0.0837 0.47027,0.13484 0.37376,0.24937 -1.71832,2.0393 -1.46773,2.30213 -2.0421,1.53449 -0.25354,-0.21725 -0.51465,-0.42422 -0.78839,-0.61579 -0.0887,-0.062 -0.35098,-0.10635 -0.27079,-0.17901 2.10755,-1.9097 2.09154,-2.33219 2.10338,-1.44334 0.28682,0.24141 0.58281,0.46435 0.88522,0.68598 0.11127,0.0815 0.42788,0.14514 0.33319,0.24547 -0.57775,0.61216 -1.29682,1.08122 -2.00892,1.53007 -0.0647,0.0408 -0.10972,-0.10672 -0.16458,-0.16009 -0.33653,-0.31308 -0.67231,-0.61797 -1.03905,-0.89611 -0.11066,-0.0839 -0.43168,-0.14302 -0.33716,-0.24476 0.57037,-0.61388 1.29299,-1.07106 1.99077,-1.53502 0.0495,-0.0329 0.0813,0.0868 0.12198,0.13024 0.27356,0.22755 0.54407,0.47122 0.83849,0.67195 0.0665,0.0453 0.27332,0.071 0.20953,0.12015 -2.11538,1.62855 -1.74389,2.13233 -2.27366,1.26988 -0.30086,-0.32073 -0.612,-0.61894 -0.96248,-0.88651 -0.1006,-0.0768 -0.40511,-0.13247 -0.31129,-0.21742 0.63471,-0.57477 1.38034,-1.0231 2.1327,-1.43195 0.0704,-0.0383 0.0862,0.13512 0.12937,0.20268 0.49707,0.52486 1.00758,1.00563 1.59899,1.42605 0.16654,0.11839 0.6416,0.16992 0.51593,0.33103 -1.7839,2.28677 -1.7415,2.23749 -1.99217,1.33282 -0.54534,-0.6006 -1.13715,-1.11848 -1.77265,-1.62388 -0.22865,-0.18184 -0.45864,-0.36221 -0.69458,-0.53449 -0.15277,-0.11154 -0.59873,-0.17708 -0.47097,-0.31657 0.57621,-0.62912 1.40024,-0.97497 2.10037,-1.46246 0.43585,0.43559 0.96908,0.7654 1.48234,1.10074 0.73506,0.48024 1.47463,0.97597 2.28983,1.31187 -0.65406,0.4711 -1.27434,0.99307 -1.96219,1.41331 -0.0584,0.0357 0.0169,-0.14477 -0.0163,-0.20456 -0.0931,-0.16746 -0.22397,-0.31165 -0.35054,-0.45547 -0.61685,-0.70095 -1.31889,-1.32858 -2.0189,-1.94342 -1.2167,-0.97029 -0.93137,-0.42468 1.36681,-2.08644 0.042,-0.0304 0.0627,0.0833 0.10123,0.11802 0.1314,0.11832 0.26898,0.2297 0.40729,0.33988 0.20783,0.16556 0.41837,0.32776 0.63094,0.4872 0.23045,0.17285 0.46534,0.33973 0.69801,0.50959 1.18638,0.81051 0.97918,0.41546 -1.51287,1.85867 -0.0715,0.0414 -0.0669,-0.15215 -0.11397,-0.22006 -0.4411,-0.63696 -1.0366,-1.13765 -1.60197,-1.65855 -0.22374,-0.16963 -0.43422,-0.35835 -0.67122,-0.5089 -0.1497,-0.0951 -0.60249,-0.0933 -0.48258,-0.22399 0.53883,-0.58718 1.23835,-1.02658 1.9533,-1.37869 0.11712,-0.0577 10e-4,0.27067 0.0603,0.38701 0.33276,0.65352 1.05417,1.35484 1.50884,1.85793 1.99928,1.85264 4.03143,3.69116 6.31036,5.19938 0,0 -2.2148,1.40085 -2.2148,1.40085 z"
         id="path4494"
         style="opacity:0.469;fill:#ffffff;fill-opacity:1;stroke:none" />
      <path
         inkscape:connector-curvature="0"
         d="m 557.24732,374.12383 c -0.79593,-1.11336 0.29037,-1.07902 2.29761,-1.60903 0.18047,-0.0476 0.31076,0.20716 0.46053,0.31856 0.22348,0.16622 0.43919,0.34264 0.65879,0.51396 0.77888,0.61455 1.54672,1.24221 2.3498,1.82535 0.0568,0.0412 0.73119,0.54882 0.89412,0.56268 0.0474,0.004 -0.004,-0.0951 -0.007,-0.14266 -0.77602,0.44822 -1.49904,1.00432 -2.32807,1.34466 -0.12243,0.0503 -0.19079,-0.18375 -0.29195,-0.26907 -0.10412,-0.0878 -0.21488,-0.16742 -0.32331,-0.24982 -0.22282,-0.16934 -0.38802,-0.26584 -0.31598,-0.30582 0.8014,-0.44476 1.6511,-0.79628 2.47665,-1.19442 0.96635,0.65898 1.86128,1.43648 2.87945,2.01687 0.93883,0.18397 0.42139,0.0634 -2.21774,1.30687 -0.0606,0.0285 -0.0968,-0.0928 -0.14908,-0.13466 -0.0579,-0.0464 -0.11686,-0.0922 -0.18076,-0.12991 -0.0283,-0.0167 -0.12182,-0.0154 -0.0934,-0.0319 0.76231,-0.44074 1.54881,-0.83824 2.32321,-1.25737 0.28338,0.31097 0.60964,0.57577 0.93362,0.84201 0.0786,0.0646 0.14985,0.13903 0.23495,0.19477 0.0162,0.0106 0.0753,-0.0115 0.058,-0.003 -0.80209,0.40295 -1.61115,0.79187 -2.41672,1.1878 -0.86863,-0.93633 -1.92717,-1.67543 -2.97335,-2.39956 0.75684,-0.46507 1.45959,-1.03261 2.27053,-1.39521 0.11389,-0.0509 0.17881,0.17406 0.26998,0.25923 0.46642,0.43572 0.93834,0.86911 1.45601,1.2433 0.0243,0.006 0.0952,0.005 0.073,0.0165 -0.79603,0.41044 -1.55226,0.92986 -2.40976,1.18833 -0.16675,0.0503 -0.25682,-0.23582 -0.39386,-0.34328 -0.48074,-0.37696 -0.99913,-0.69737 -1.5294,-0.99804 -0.0532,-0.006 -0.20558,0.0103 -0.15959,-0.017 0.76177,-0.45272 1.49786,-0.97813 2.33293,-1.27461 0.14394,-0.0511 0.20241,0.22919 0.31203,0.33555 0.4522,0.43874 0.94846,0.83706 1.43107,1.24132 0.11598,0.0803 0.22599,0.17006 0.34792,0.24102 0.79022,0.45988 2.84344,-1.16775 -2.09187,1.27435 -0.0231,0.0114 -0.0388,-0.034 -0.0582,-0.051 -0.0946,-0.0831 -0.18418,-0.17219 -0.2837,-0.24928 -0.12898,-0.0999 -0.26719,-0.18728 -0.40078,-0.28093 -0.12737,-0.0692 -0.2482,-0.15206 -0.38212,-0.2075 -0.75656,-0.3132 -3.78691,1.2408 2.03158,-1.28232 0.0777,-0.0337 0.10804,0.13111 0.16976,0.18912 0.26028,0.24465 0.50426,0.41899 0.78935,0.63738 0.25398,0.13155 0.95918,0.7697 1.28993,0.64626 0.0499,-0.0186 0.0706,-0.0798 0.10593,-0.11963 0,0 -2.05153,1.60789 -2.05153,1.60789 l 0,0 c -0.56947,-0.0317 -0.98455,-0.52531 -1.44889,-0.80294 -0.0277,-0.0202 -0.82003,-0.59736 -0.86444,-0.63377 -0.10255,-0.0841 -0.38819,-0.18309 -0.29005,-0.27226 1.93084,-1.75436 1.59562,-1.83708 2.75944,-1.11107 0.0493,0.032 1.19268,0.7448 1.04616,0.85805 -2.14321,1.65651 -1.77216,1.76446 -2.77056,0.86586 -0.47744,-0.42584 -0.96094,-0.83421 -1.46649,-1.22648 -0.12664,-0.0983 -0.48895,-0.17506 -0.38093,-0.2935 0.57479,-0.63026 1.3383,-1.06109 2.04795,-1.53439 0.0396,-0.0265 0.0675,0.0673 0.10122,0.101 0.49269,0.36465 1.00828,0.68926 1.51948,1.02713 0.16006,0.10578 0.59942,0.17324 0.47748,0.32135 -1.97856,2.40313 -1.96534,2.38343 -2.02417,1.50085 -0.43968,-0.44495 -0.91299,-0.88936 -1.4399,-1.23045 -0.0876,-0.0567 -0.35765,-0.073 -0.27915,-0.14179 0.63718,-0.55829 1.39367,-0.96355 2.09051,-1.44532 0.29939,0.39735 0.70843,0.6879 1.09949,0.98958 0.6171,0.47606 1.24983,0.93179 1.86175,1.41467 -0.66738,0.52293 -1.32466,1.05901 -2.00213,1.56881 -0.015,0.0113 0.003,-0.0406 -0.009,-0.0556 -0.0554,-0.0741 -0.11906,-0.14216 -0.18648,-0.20548 -0.32217,-0.30251 -0.68799,-0.55569 -1.0287,-0.83589 0.70419,-0.5021 1.38983,-1.0313 2.11258,-1.5063 0.0281,-0.0184 0.0459,0.0493 0.0719,0.0706 0.0612,0.0502 0.12669,0.0949 0.18924,0.14347 0.0684,0.0531 0.26986,0.10562 0.20355,0.16127 -2.03641,1.70898 -1.69409,2.20602 -2.19365,1.41338 -0.87227,-0.77018 -1.82145,-1.4635 -2.8672,-1.98001 0.67277,-0.47601 1.3579,-0.93501 2.01832,-1.42802 0.0216,-0.0161 -0.0936,-0.0424 -0.0782,-0.0203 0.0816,0.11694 0.45394,0.38693 0.5237,0.43976 0.10793,0.0817 0.41323,0.13876 0.32599,0.24229 -0.54713,0.64928 -1.28699,1.10784 -1.93048,1.66176 -0.12885,-0.25804 -0.64363,-0.63293 -0.8266,-0.78487 -0.76227,-0.63297 -1.54622,-1.24255 -2.36288,-1.80391 -0.23873,-0.15072 -0.47084,-0.31247 -0.71619,-0.45214 -0.16422,-0.0935 -0.64126,-0.10972 -0.5106,-0.24622 0.55755,-0.58252 1.37778,-0.84329 2.02005,-1.33081 0.045,-0.0341 -0.0961,-0.13441 -0.13866,-0.0973 -0.0868,0.0756 0.28525,0.21928 0.21079,0.27362 0,0 -2.25365,1.33743 -2.25365,1.33743 z"
         id="path4496"
         style="opacity:0.469;fill:#ffffff;fill-opacity:1;stroke:none" />
    </g>
  </g>
</svg>
